<svg xmlns="http://www.w3.org/2000/svg" version="1.1" xmlns:xlink="http://www.w3.org/1999/xlink" xmlns:svgjs="http://svgjs.com/svgjs" width="2560" height="1440" preserveAspectRatio="none" viewBox="0 0 2560 1440"><g mask="url(&quot;#SvgjsMask1167&quot;)" fill="none"><rect width="2560" height="1440" x="0" y="0" fill="#0e2a47"></rect><path d="M61.82 -13.69L141.5 32.31L141.5 124.31L61.82 170.31L-17.86 124.31L-17.86 32.31zM141.5 400.31L221.17 446.31L221.17 538.31L141.5 584.31L61.82 538.31L61.82 446.31zM61.82 1090.31L141.5 1136.31L141.5 1228.31L61.82 1274.31L-17.86 1228.31L-17.86 1136.31zM221.17 -13.69L300.85 32.31L300.85 124.31L221.17 170.31L141.5 124.31L141.5 32.31zM300.85 124.31L380.53 170.31L380.53 262.31L300.85 308.31L221.17 262.31L221.17 170.31zM300.85 676.31L380.53 722.31L380.53 814.31L300.85 860.31L221.17 814.31L221.17 722.31zM221.17 1090.31L300.85 1136.31L300.85 1228.31L221.17 1274.31L141.5 1228.31L141.5 1136.31zM221.17 1366.31L300.85 1412.31L300.85 1504.31L221.17 1550.31L141.5 1504.31L141.5 1412.31zM380.53 -13.69L460.2 32.31L460.2 124.31L380.53 170.31L300.85 124.31L300.85 32.31zM460.2 124.31L539.88 170.31L539.88 262.31L460.2 308.31L380.53 262.31L380.53 170.31zM380.53 538.31L460.2 584.31L460.2 676.31L380.53 722.31L300.85 676.31L300.85 584.31zM460.2 1228.31L539.88 1274.31L539.88 1366.31L460.2 1412.31L380.53 1366.31L380.53 1274.31zM619.56 124.31L699.23 170.31L699.23 262.31L619.56 308.31L539.88 262.31L539.88 170.31zM539.88 262.31L619.56 308.31L619.56 400.31L539.88 446.31L460.2 400.31L460.2 308.31zM619.56 400.31L699.23 446.31L699.23 538.31L619.56 584.31L539.88 538.31L539.88 446.31zM619.56 676.31L699.23 722.31L699.23 814.31L619.56 860.31L539.88 814.31L539.88 722.31zM539.88 1090.31L619.56 1136.31L619.56 1228.31L539.88 1274.31L460.2 1228.31L460.2 1136.31zM699.23 -13.69L778.91 32.31L778.91 124.31L699.23 170.31L619.56 124.31L619.56 32.31zM778.91 124.31L858.59 170.31L858.59 262.31L778.91 308.31L699.23 262.31L699.23 170.31zM778.91 676.31L858.59 722.31L858.59 814.31L778.91 860.31L699.23 814.31L699.23 722.31zM699.23 1090.31L778.91 1136.31L778.91 1228.31L699.23 1274.31L619.56 1228.31L619.56 1136.31zM858.59 -13.69L938.26 32.31L938.26 124.31L858.59 170.31L778.91 124.31L778.91 32.31zM938.26 124.31L1017.94 170.31L1017.94 262.31L938.26 308.31L858.59 262.31L858.59 170.31zM938.26 400.31L1017.94 446.31L1017.94 538.31L938.26 584.31L858.59 538.31L858.59 446.31zM938.26 952.31L1017.94 998.31L1017.94 1090.31L938.26 1136.31L858.59 1090.31L858.59 998.31zM858.59 1366.31L938.26 1412.31L938.26 1504.31L858.59 1550.31L778.91 1504.31L778.91 1412.31zM1017.94 -13.69L1097.62 32.31L1097.62 124.31L1017.94 170.31L938.26 124.31L938.26 32.31zM1017.94 262.31L1097.62 308.31L1097.62 400.31L1017.94 446.31L938.26 400.31L938.26 308.31zM1017.94 814.31L1097.62 860.31L1097.62 952.31L1017.94 998.31L938.26 952.31L938.26 860.31zM1097.62 952.31L1177.29 998.31L1177.29 1090.31L1097.62 1136.31L1017.94 1090.31L1017.94 998.31zM1177.29 -13.69L1256.97 32.31L1256.97 124.31L1177.29 170.31L1097.62 124.31L1097.62 32.31zM1256.97 124.31L1336.65 170.31L1336.65 262.31L1256.97 308.31L1177.29 262.31L1177.29 170.31zM1177.29 538.31L1256.97 584.31L1256.97 676.31L1177.29 722.31L1097.62 676.31L1097.62 584.31zM1256.97 676.31L1336.65 722.31L1336.65 814.31L1256.97 860.31L1177.29 814.31L1177.29 722.31zM1177.29 814.31L1256.97 860.31L1256.97 952.31L1177.29 998.31L1097.62 952.31L1097.62 860.31zM1256.97 952.31L1336.65 998.31L1336.65 1090.31L1256.97 1136.31L1177.29 1090.31L1177.29 998.31zM1177.29 1090.31L1256.97 1136.31L1256.97 1228.31L1177.29 1274.31L1097.62 1228.31L1097.62 1136.31zM1256.97 1228.31L1336.65 1274.31L1336.65 1366.31L1256.97 1412.31L1177.29 1366.31L1177.29 1274.31zM1416.32 676.31L1496 722.31L1496 814.31L1416.32 860.31L1336.65 814.31L1336.65 722.31zM1336.65 814.31L1416.32 860.31L1416.32 952.31L1336.65 998.31L1256.97 952.31L1256.97 860.31zM1336.65 1090.31L1416.32 1136.31L1416.32 1228.31L1336.65 1274.31L1256.97 1228.31L1256.97 1136.31zM1416.32 1228.31L1496 1274.31L1496 1366.31L1416.32 1412.31L1336.65 1366.31L1336.65 1274.31zM1575.68 124.31L1655.35 170.31L1655.35 262.31L1575.68 308.31L1496 262.31L1496 170.31zM1496 262.31L1575.68 308.31L1575.68 400.31L1496 446.31L1416.32 400.31L1416.32 308.31zM1575.68 400.31L1655.35 446.31L1655.35 538.31L1575.68 584.31L1496 538.31L1496 446.31zM1496 538.31L1575.68 584.31L1575.68 676.31L1496 722.31L1416.32 676.31L1416.32 584.31zM1575.68 676.31L1655.35 722.31L1655.35 814.31L1575.68 860.31L1496 814.31L1496 722.31zM1496 814.31L1575.68 860.31L1575.68 952.31L1496 998.31L1416.32 952.31L1416.32 860.31zM1496 1366.31L1575.68 1412.31L1575.68 1504.31L1496 1550.31L1416.32 1504.31L1416.32 1412.31zM1655.35 -13.69L1735.03 32.31L1735.03 124.31L1655.35 170.31L1575.68 124.31L1575.68 32.31zM1655.35 538.31L1735.03 584.31L1735.03 676.31L1655.35 722.31L1575.68 676.31L1575.68 584.31zM1735.03 1228.31L1814.71 1274.31L1814.71 1366.31L1735.03 1412.31L1655.35 1366.31L1655.35 1274.31zM1814.71 262.31L1894.38 308.31L1894.38 400.31L1814.71 446.31L1735.03 400.31L1735.03 308.31zM1894.38 676.31L1974.06 722.31L1974.06 814.31L1894.38 860.31L1814.71 814.31L1814.71 722.31zM1974.06 -13.69L2053.73 32.31L2053.73 124.31L1974.06 170.31L1894.38 124.31L1894.38 32.31zM2053.73 124.31L2133.41 170.31L2133.41 262.31L2053.73 308.31L1974.06 262.31L1974.06 170.31zM2053.73 400.31L2133.41 446.31L2133.41 538.31L2053.73 584.31L1974.06 538.31L1974.06 446.31zM2053.73 676.31L2133.41 722.31L2133.41 814.31L2053.73 860.31L1974.06 814.31L1974.06 722.31zM1974.06 1366.31L2053.73 1412.31L2053.73 1504.31L1974.06 1550.31L1894.38 1504.31L1894.38 1412.31zM2133.41 -13.69L2213.09 32.31L2213.09 124.31L2133.41 170.31L2053.73 124.31L2053.73 32.31zM2133.41 538.31L2213.09 584.31L2213.09 676.31L2133.41 722.31L2053.73 676.31L2053.73 584.31zM2213.09 676.31L2292.76 722.31L2292.76 814.31L2213.09 860.31L2133.41 814.31L2133.41 722.31zM2213.09 1228.31L2292.76 1274.31L2292.76 1366.31L2213.09 1412.31L2133.41 1366.31L2133.41 1274.31zM2133.41 1366.31L2213.09 1412.31L2213.09 1504.31L2133.41 1550.31L2053.73 1504.31L2053.73 1412.31zM2372.44 124.31L2452.12 170.31L2452.12 262.31L2372.44 308.31L2292.76 262.31L2292.76 170.31zM2292.76 262.31L2372.44 308.31L2372.44 400.31L2292.76 446.31L2213.09 400.31L2213.09 308.31zM2372.44 400.31L2452.12 446.31L2452.12 538.31L2372.44 584.31L2292.76 538.31L2292.76 446.31zM2292.76 538.31L2372.44 584.31L2372.44 676.31L2292.76 722.31L2213.09 676.31L2213.09 584.31zM2372.44 676.31L2452.12 722.31L2452.12 814.31L2372.44 860.31L2292.76 814.31L2292.76 722.31zM2372.44 952.31L2452.12 998.31L2452.12 1090.31L2372.44 1136.31L2292.76 1090.31L2292.76 998.31zM2372.44 1228.31L2452.12 1274.31L2452.12 1366.31L2372.44 1412.31L2292.76 1366.31L2292.76 1274.31zM2452.12 262.31L2531.79 308.31L2531.79 400.31L2452.12 446.31L2372.44 400.31L2372.44 308.31zM2531.79 400.31L2611.47 446.31L2611.47 538.31L2531.79 584.31L2452.12 538.31L2452.12 446.31zM2452.12 814.31L2531.79 860.31L2531.79 952.31L2452.12 998.31L2372.44 952.31L2372.44 860.31zM2611.47 262.31L2691.15 308.31L2691.15 400.31L2611.47 446.31L2531.79 400.31L2531.79 308.31zM2691.15 400.31L2770.82 446.31L2770.82 538.31L2691.15 584.31L2611.47 538.31L2611.47 446.31zM2611.47 1090.31L2691.15 1136.31L2691.15 1228.31L2611.47 1274.31L2531.79 1228.31L2531.79 1136.31zM2691.15 1228.31L2770.82 1274.31L2770.82 1366.31L2691.15 1412.31L2611.47 1366.31L2611.47 1274.31z" stroke="#03305d" stroke-width="2"></path><path d="M52.62 -13.69 a9.2 9.2 0 1 0 18.4 0 a9.2 9.2 0 1 0 -18.4 0zM132.3 32.31 a9.2 9.2 0 1 0 18.4 0 a9.2 9.2 0 1 0 -18.4 0zM132.3 124.31 a9.2 9.2 0 1 0 18.4 0 a9.2 9.2 0 1 0 -18.4 0zM52.62 170.31 a9.2 9.2 0 1 0 18.4 0 a9.2 9.2 0 1 0 -18.4 0zM-27.06 124.31 a9.2 9.2 0 1 0 18.4 0 a9.2 9.2 0 1 0 -18.4 0zM-27.06 32.31 a9.2 9.2 0 1 0 18.4 0 a9.2 9.2 0 1 0 -18.4 0zM132.3 400.31 a9.2 9.2 0 1 0 18.4 0 a9.2 9.2 0 1 0 -18.4 0zM211.97 446.31 a9.2 9.2 0 1 0 18.4 0 a9.2 9.2 0 1 0 -18.4 0zM211.97 538.31 a9.2 9.2 0 1 0 18.4 0 a9.2 9.2 0 1 0 -18.4 0zM132.3 584.31 a9.2 9.2 0 1 0 18.4 0 a9.2 9.2 0 1 0 -18.4 0zM52.62 538.31 a9.2 9.2 0 1 0 18.4 0 a9.2 9.2 0 1 0 -18.4 0zM52.62 446.31 a9.2 9.2 0 1 0 18.4 0 a9.2 9.2 0 1 0 -18.4 0zM52.62 1090.31 a9.2 9.2 0 1 0 18.4 0 a9.2 9.2 0 1 0 -18.4 0zM132.3 1136.31 a9.2 9.2 0 1 0 18.4 0 a9.2 9.2 0 1 0 -18.4 0zM132.3 1228.31 a9.2 9.2 0 1 0 18.4 0 a9.2 9.2 0 1 0 -18.4 0zM52.62 1274.31 a9.2 9.2 0 1 0 18.4 0 a9.2 9.2 0 1 0 -18.4 0zM-27.06 1228.31 a9.2 9.2 0 1 0 18.4 0 a9.2 9.2 0 1 0 -18.4 0zM-27.06 1136.31 a9.2 9.2 0 1 0 18.4 0 a9.2 9.2 0 1 0 -18.4 0zM211.97 -13.69 a9.2 9.2 0 1 0 18.4 0 a9.2 9.2 0 1 0 -18.4 0zM291.65 32.31 a9.2 9.2 0 1 0 18.4 0 a9.2 9.2 0 1 0 -18.4 0zM291.65 124.31 a9.2 9.2 0 1 0 18.4 0 a9.2 9.2 0 1 0 -18.4 0zM211.97 170.31 a9.2 9.2 0 1 0 18.4 0 a9.2 9.2 0 1 0 -18.4 0zM371.33 170.31 a9.2 9.2 0 1 0 18.4 0 a9.2 9.2 0 1 0 -18.4 0zM371.33 262.31 a9.2 9.2 0 1 0 18.4 0 a9.2 9.2 0 1 0 -18.4 0zM291.65 308.31 a9.2 9.2 0 1 0 18.4 0 a9.2 9.2 0 1 0 -18.4 0zM211.97 262.31 a9.2 9.2 0 1 0 18.4 0 a9.2 9.2 0 1 0 -18.4 0zM291.65 676.31 a9.2 9.2 0 1 0 18.4 0 a9.2 9.2 0 1 0 -18.4 0zM371.33 722.31 a9.2 9.2 0 1 0 18.4 0 a9.2 9.2 0 1 0 -18.4 0zM371.33 814.31 a9.2 9.2 0 1 0 18.4 0 a9.2 9.2 0 1 0 -18.4 0zM291.65 860.31 a9.2 9.2 0 1 0 18.4 0 a9.2 9.2 0 1 0 -18.4 0zM211.97 814.31 a9.2 9.2 0 1 0 18.4 0 a9.2 9.2 0 1 0 -18.4 0zM211.97 722.31 a9.2 9.2 0 1 0 18.4 0 a9.2 9.2 0 1 0 -18.4 0zM211.97 1090.31 a9.2 9.2 0 1 0 18.4 0 a9.2 9.2 0 1 0 -18.4 0zM291.65 1136.31 a9.2 9.2 0 1 0 18.4 0 a9.2 9.2 0 1 0 -18.4 0zM291.65 1228.31 a9.2 9.2 0 1 0 18.4 0 a9.2 9.2 0 1 0 -18.4 0zM211.97 1274.31 a9.2 9.2 0 1 0 18.4 0 a9.2 9.2 0 1 0 -18.4 0zM211.97 1366.31 a9.2 9.2 0 1 0 18.4 0 a9.2 9.2 0 1 0 -18.4 0zM291.65 1412.31 a9.2 9.2 0 1 0 18.4 0 a9.2 9.2 0 1 0 -18.4 0zM291.65 1504.31 a9.2 9.2 0 1 0 18.4 0 a9.2 9.2 0 1 0 -18.4 0zM211.97 1550.31 a9.2 9.2 0 1 0 18.4 0 a9.2 9.2 0 1 0 -18.4 0zM132.3 1504.31 a9.2 9.2 0 1 0 18.4 0 a9.2 9.2 0 1 0 -18.4 0zM132.3 1412.31 a9.2 9.2 0 1 0 18.4 0 a9.2 9.2 0 1 0 -18.4 0zM371.33 -13.69 a9.2 9.2 0 1 0 18.4 0 a9.2 9.2 0 1 0 -18.4 0zM451 32.31 a9.2 9.2 0 1 0 18.4 0 a9.2 9.2 0 1 0 -18.4 0zM451 124.31 a9.2 9.2 0 1 0 18.4 0 a9.2 9.2 0 1 0 -18.4 0zM530.68 170.31 a9.2 9.2 0 1 0 18.4 0 a9.2 9.2 0 1 0 -18.4 0zM530.68 262.31 a9.2 9.2 0 1 0 18.4 0 a9.2 9.2 0 1 0 -18.4 0zM451 308.31 a9.2 9.2 0 1 0 18.4 0 a9.2 9.2 0 1 0 -18.4 0zM371.33 538.31 a9.2 9.2 0 1 0 18.4 0 a9.2 9.2 0 1 0 -18.4 0zM451 584.31 a9.2 9.2 0 1 0 18.4 0 a9.2 9.2 0 1 0 -18.4 0zM451 676.31 a9.2 9.2 0 1 0 18.4 0 a9.2 9.2 0 1 0 -18.4 0zM291.65 584.31 a9.2 9.2 0 1 0 18.4 0 a9.2 9.2 0 1 0 -18.4 0zM451 1228.31 a9.2 9.2 0 1 0 18.4 0 a9.2 9.2 0 1 0 -18.4 0zM530.68 1274.31 a9.2 9.2 0 1 0 18.4 0 a9.2 9.2 0 1 0 -18.4 0zM530.68 1366.31 a9.2 9.2 0 1 0 18.4 0 a9.2 9.2 0 1 0 -18.4 0zM451 1412.31 a9.2 9.2 0 1 0 18.4 0 a9.2 9.2 0 1 0 -18.4 0zM371.33 1366.31 a9.2 9.2 0 1 0 18.4 0 a9.2 9.2 0 1 0 -18.4 0zM371.33 1274.31 a9.2 9.2 0 1 0 18.4 0 a9.2 9.2 0 1 0 -18.4 0zM610.36 124.31 a9.2 9.2 0 1 0 18.4 0 a9.2 9.2 0 1 0 -18.4 0zM690.03 170.31 a9.2 9.2 0 1 0 18.4 0 a9.2 9.2 0 1 0 -18.4 0zM690.03 262.31 a9.2 9.2 0 1 0 18.4 0 a9.2 9.2 0 1 0 -18.4 0zM610.36 308.31 a9.2 9.2 0 1 0 18.4 0 a9.2 9.2 0 1 0 -18.4 0zM610.36 400.31 a9.2 9.2 0 1 0 18.4 0 a9.2 9.2 0 1 0 -18.4 0zM530.68 446.31 a9.2 9.2 0 1 0 18.4 0 a9.2 9.2 0 1 0 -18.4 0zM451 400.31 a9.2 9.2 0 1 0 18.4 0 a9.2 9.2 0 1 0 -18.4 0zM690.03 446.31 a9.2 9.2 0 1 0 18.4 0 a9.2 9.2 0 1 0 -18.4 0zM690.03 538.31 a9.2 9.2 0 1 0 18.4 0 a9.2 9.2 0 1 0 -18.4 0zM610.36 584.31 a9.2 9.2 0 1 0 18.4 0 a9.2 9.2 0 1 0 -18.4 0zM530.68 538.31 a9.2 9.2 0 1 0 18.4 0 a9.2 9.2 0 1 0 -18.4 0zM610.36 676.31 a9.2 9.2 0 1 0 18.4 0 a9.2 9.2 0 1 0 -18.4 0zM690.03 722.31 a9.2 9.2 0 1 0 18.4 0 a9.2 9.2 0 1 0 -18.4 0zM690.03 814.31 a9.2 9.2 0 1 0 18.4 0 a9.2 9.2 0 1 0 -18.4 0zM610.36 860.31 a9.2 9.2 0 1 0 18.4 0 a9.2 9.2 0 1 0 -18.4 0zM530.68 814.31 a9.2 9.2 0 1 0 18.4 0 a9.2 9.2 0 1 0 -18.4 0zM530.68 722.31 a9.2 9.2 0 1 0 18.4 0 a9.2 9.2 0 1 0 -18.4 0zM530.68 1090.31 a9.2 9.2 0 1 0 18.4 0 a9.2 9.2 0 1 0 -18.4 0zM610.36 1136.31 a9.2 9.2 0 1 0 18.4 0 a9.2 9.2 0 1 0 -18.4 0zM610.36 1228.31 a9.2 9.2 0 1 0 18.4 0 a9.2 9.2 0 1 0 -18.4 0zM451 1136.31 a9.2 9.2 0 1 0 18.4 0 a9.2 9.2 0 1 0 -18.4 0zM690.03 -13.69 a9.2 9.2 0 1 0 18.4 0 a9.2 9.2 0 1 0 -18.4 0zM769.71 32.31 a9.2 9.2 0 1 0 18.4 0 a9.2 9.2 0 1 0 -18.4 0zM769.71 124.31 a9.2 9.2 0 1 0 18.4 0 a9.2 9.2 0 1 0 -18.4 0zM610.36 32.31 a9.2 9.2 0 1 0 18.4 0 a9.2 9.2 0 1 0 -18.4 0zM849.39 170.31 a9.2 9.2 0 1 0 18.4 0 a9.2 9.2 0 1 0 -18.4 0zM849.39 262.31 a9.2 9.2 0 1 0 18.4 0 a9.2 9.2 0 1 0 -18.4 0zM769.71 308.31 a9.2 9.2 0 1 0 18.4 0 a9.2 9.2 0 1 0 -18.4 0zM769.71 676.31 a9.2 9.2 0 1 0 18.4 0 a9.2 9.2 0 1 0 -18.4 0zM849.39 722.31 a9.2 9.2 0 1 0 18.4 0 a9.2 9.2 0 1 0 -18.4 0zM849.39 814.31 a9.2 9.2 0 1 0 18.4 0 a9.2 9.2 0 1 0 -18.4 0zM769.71 860.31 a9.2 9.2 0 1 0 18.4 0 a9.2 9.2 0 1 0 -18.4 0zM690.03 1090.31 a9.2 9.2 0 1 0 18.4 0 a9.2 9.2 0 1 0 -18.4 0zM769.71 1136.31 a9.2 9.2 0 1 0 18.4 0 a9.2 9.2 0 1 0 -18.4 0zM769.71 1228.31 a9.2 9.2 0 1 0 18.4 0 a9.2 9.2 0 1 0 -18.4 0zM690.03 1274.31 a9.2 9.2 0 1 0 18.4 0 a9.2 9.2 0 1 0 -18.4 0zM849.39 -13.69 a9.2 9.2 0 1 0 18.4 0 a9.2 9.2 0 1 0 -18.4 0zM929.06 32.31 a9.2 9.2 0 1 0 18.4 0 a9.2 9.2 0 1 0 -18.4 0zM929.06 124.31 a9.2 9.2 0 1 0 18.4 0 a9.2 9.2 0 1 0 -18.4 0zM1008.74 170.31 a9.2 9.2 0 1 0 18.4 0 a9.2 9.2 0 1 0 -18.4 0zM1008.74 262.31 a9.2 9.2 0 1 0 18.4 0 a9.2 9.2 0 1 0 -18.4 0zM929.06 308.31 a9.2 9.2 0 1 0 18.4 0 a9.2 9.2 0 1 0 -18.4 0zM929.06 400.31 a9.2 9.2 0 1 0 18.4 0 a9.2 9.2 0 1 0 -18.4 0zM1008.74 446.31 a9.2 9.2 0 1 0 18.4 0 a9.2 9.2 0 1 0 -18.4 0zM1008.74 538.31 a9.2 9.2 0 1 0 18.4 0 a9.2 9.2 0 1 0 -18.4 0zM929.06 584.31 a9.2 9.2 0 1 0 18.4 0 a9.2 9.2 0 1 0 -18.4 0zM849.39 538.31 a9.2 9.2 0 1 0 18.4 0 a9.2 9.2 0 1 0 -18.4 0zM849.39 446.31 a9.2 9.2 0 1 0 18.4 0 a9.2 9.2 0 1 0 -18.4 0zM929.06 952.31 a9.2 9.2 0 1 0 18.4 0 a9.2 9.2 0 1 0 -18.4 0zM1008.74 998.31 a9.2 9.2 0 1 0 18.4 0 a9.2 9.2 0 1 0 -18.4 0zM1008.74 1090.31 a9.2 9.2 0 1 0 18.4 0 a9.2 9.2 0 1 0 -18.4 0zM929.06 1136.31 a9.2 9.2 0 1 0 18.4 0 a9.2 9.2 0 1 0 -18.4 0zM849.39 1090.31 a9.2 9.2 0 1 0 18.4 0 a9.2 9.2 0 1 0 -18.4 0zM849.39 998.31 a9.2 9.2 0 1 0 18.4 0 a9.2 9.2 0 1 0 -18.4 0zM849.39 1366.31 a9.2 9.2 0 1 0 18.4 0 a9.2 9.2 0 1 0 -18.4 0zM929.06 1412.31 a9.2 9.2 0 1 0 18.4 0 a9.2 9.2 0 1 0 -18.4 0zM929.06 1504.31 a9.2 9.2 0 1 0 18.4 0 a9.2 9.2 0 1 0 -18.4 0zM849.39 1550.31 a9.2 9.2 0 1 0 18.4 0 a9.2 9.2 0 1 0 -18.4 0zM769.71 1504.31 a9.2 9.2 0 1 0 18.4 0 a9.2 9.2 0 1 0 -18.4 0zM769.71 1412.31 a9.2 9.2 0 1 0 18.4 0 a9.2 9.2 0 1 0 -18.4 0zM1008.74 -13.69 a9.2 9.2 0 1 0 18.4 0 a9.2 9.2 0 1 0 -18.4 0zM1088.42 32.31 a9.2 9.2 0 1 0 18.4 0 a9.2 9.2 0 1 0 -18.4 0zM1088.42 124.31 a9.2 9.2 0 1 0 18.4 0 a9.2 9.2 0 1 0 -18.4 0zM1088.42 308.31 a9.2 9.2 0 1 0 18.4 0 a9.2 9.2 0 1 0 -18.4 0zM1088.42 400.31 a9.2 9.2 0 1 0 18.4 0 a9.2 9.2 0 1 0 -18.4 0zM1008.74 814.31 a9.2 9.2 0 1 0 18.4 0 a9.2 9.2 0 1 0 -18.4 0zM1088.42 860.31 a9.2 9.2 0 1 0 18.4 0 a9.2 9.2 0 1 0 -18.4 0zM1088.42 952.31 a9.2 9.2 0 1 0 18.4 0 a9.2 9.2 0 1 0 -18.4 0zM929.06 860.31 a9.2 9.2 0 1 0 18.4 0 a9.2 9.2 0 1 0 -18.4 0zM1168.09 998.31 a9.2 9.2 0 1 0 18.4 0 a9.2 9.2 0 1 0 -18.4 0zM1168.09 1090.31 a9.2 9.2 0 1 0 18.4 0 a9.2 9.2 0 1 0 -18.4 0zM1088.42 1136.31 a9.2 9.2 0 1 0 18.4 0 a9.2 9.2 0 1 0 -18.4 0zM1168.09 -13.69 a9.2 9.2 0 1 0 18.4 0 a9.2 9.2 0 1 0 -18.4 0zM1247.77 32.31 a9.2 9.2 0 1 0 18.4 0 a9.2 9.2 0 1 0 -18.4 0zM1247.77 124.31 a9.2 9.2 0 1 0 18.4 0 a9.2 9.2 0 1 0 -18.4 0zM1168.09 170.31 a9.2 9.2 0 1 0 18.4 0 a9.2 9.2 0 1 0 -18.4 0zM1327.45 170.31 a9.2 9.2 0 1 0 18.4 0 a9.2 9.2 0 1 0 -18.4 0zM1327.45 262.31 a9.2 9.2 0 1 0 18.4 0 a9.2 9.2 0 1 0 -18.4 0zM1247.77 308.31 a9.2 9.2 0 1 0 18.4 0 a9.2 9.2 0 1 0 -18.4 0zM1168.09 262.31 a9.2 9.2 0 1 0 18.4 0 a9.2 9.2 0 1 0 -18.4 0zM1168.09 538.31 a9.2 9.2 0 1 0 18.4 0 a9.2 9.2 0 1 0 -18.4 0zM1247.77 584.31 a9.2 9.2 0 1 0 18.4 0 a9.2 9.2 0 1 0 -18.4 0zM1247.77 676.31 a9.2 9.2 0 1 0 18.4 0 a9.2 9.2 0 1 0 -18.4 0zM1168.09 722.31 a9.2 9.2 0 1 0 18.4 0 a9.2 9.2 0 1 0 -18.4 0zM1088.42 676.31 a9.2 9.2 0 1 0 18.4 0 a9.2 9.2 0 1 0 -18.4 0zM1088.42 584.31 a9.2 9.2 0 1 0 18.4 0 a9.2 9.2 0 1 0 -18.4 0zM1327.45 722.31 a9.2 9.2 0 1 0 18.4 0 a9.2 9.2 0 1 0 -18.4 0zM1327.45 814.31 a9.2 9.2 0 1 0 18.4 0 a9.2 9.2 0 1 0 -18.4 0zM1247.77 860.31 a9.2 9.2 0 1 0 18.4 0 a9.2 9.2 0 1 0 -18.4 0zM1168.09 814.31 a9.2 9.2 0 1 0 18.4 0 a9.2 9.2 0 1 0 -18.4 0zM1247.77 952.31 a9.2 9.2 0 1 0 18.4 0 a9.2 9.2 0 1 0 -18.4 0zM1327.45 998.31 a9.2 9.2 0 1 0 18.4 0 a9.2 9.2 0 1 0 -18.4 0zM1327.45 1090.31 a9.2 9.2 0 1 0 18.4 0 a9.2 9.2 0 1 0 -18.4 0zM1247.77 1136.31 a9.2 9.2 0 1 0 18.4 0 a9.2 9.2 0 1 0 -18.4 0zM1247.77 1228.31 a9.2 9.2 0 1 0 18.4 0 a9.2 9.2 0 1 0 -18.4 0zM1168.09 1274.31 a9.2 9.2 0 1 0 18.4 0 a9.2 9.2 0 1 0 -18.4 0zM1088.42 1228.31 a9.2 9.2 0 1 0 18.4 0 a9.2 9.2 0 1 0 -18.4 0zM1327.45 1274.31 a9.2 9.2 0 1 0 18.4 0 a9.2 9.2 0 1 0 -18.4 0zM1327.45 1366.31 a9.2 9.2 0 1 0 18.4 0 a9.2 9.2 0 1 0 -18.4 0zM1247.77 1412.31 a9.2 9.2 0 1 0 18.4 0 a9.2 9.2 0 1 0 -18.4 0zM1168.09 1366.31 a9.2 9.2 0 1 0 18.4 0 a9.2 9.2 0 1 0 -18.4 0zM1407.12 676.31 a9.2 9.2 0 1 0 18.4 0 a9.2 9.2 0 1 0 -18.4 0zM1486.8 722.31 a9.2 9.2 0 1 0 18.4 0 a9.2 9.2 0 1 0 -18.4 0zM1486.8 814.31 a9.2 9.2 0 1 0 18.4 0 a9.2 9.2 0 1 0 -18.4 0zM1407.12 860.31 a9.2 9.2 0 1 0 18.4 0 a9.2 9.2 0 1 0 -18.4 0zM1407.12 952.31 a9.2 9.2 0 1 0 18.4 0 a9.2 9.2 0 1 0 -18.4 0zM1407.12 1136.31 a9.2 9.2 0 1 0 18.4 0 a9.2 9.2 0 1 0 -18.4 0zM1407.12 1228.31 a9.2 9.2 0 1 0 18.4 0 a9.2 9.2 0 1 0 -18.4 0zM1486.8 1274.31 a9.2 9.2 0 1 0 18.4 0 a9.2 9.2 0 1 0 -18.4 0zM1486.8 1366.31 a9.2 9.2 0 1 0 18.4 0 a9.2 9.2 0 1 0 -18.4 0zM1407.12 1412.31 a9.2 9.2 0 1 0 18.4 0 a9.2 9.2 0 1 0 -18.4 0zM1566.48 124.31 a9.2 9.2 0 1 0 18.4 0 a9.2 9.2 0 1 0 -18.4 0zM1646.15 170.31 a9.2 9.2 0 1 0 18.4 0 a9.2 9.2 0 1 0 -18.4 0zM1646.15 262.31 a9.2 9.2 0 1 0 18.4 0 a9.2 9.2 0 1 0 -18.4 0zM1566.48 308.31 a9.2 9.2 0 1 0 18.4 0 a9.2 9.2 0 1 0 -18.4 0zM1486.8 262.31 a9.2 9.2 0 1 0 18.4 0 a9.2 9.2 0 1 0 -18.4 0zM1486.8 170.31 a9.2 9.2 0 1 0 18.4 0 a9.2 9.2 0 1 0 -18.4 0zM1566.48 400.31 a9.2 9.2 0 1 0 18.4 0 a9.2 9.2 0 1 0 -18.4 0zM1486.8 446.31 a9.2 9.2 0 1 0 18.4 0 a9.2 9.2 0 1 0 -18.4 0zM1407.12 400.31 a9.2 9.2 0 1 0 18.4 0 a9.2 9.2 0 1 0 -18.4 0zM1407.12 308.31 a9.2 9.2 0 1 0 18.4 0 a9.2 9.2 0 1 0 -18.4 0zM1646.15 446.31 a9.2 9.2 0 1 0 18.4 0 a9.2 9.2 0 1 0 -18.4 0zM1646.15 538.31 a9.2 9.2 0 1 0 18.4 0 a9.2 9.2 0 1 0 -18.4 0zM1566.48 584.31 a9.2 9.2 0 1 0 18.4 0 a9.2 9.2 0 1 0 -18.4 0zM1486.8 538.31 a9.2 9.2 0 1 0 18.4 0 a9.2 9.2 0 1 0 -18.4 0zM1566.48 676.31 a9.2 9.2 0 1 0 18.4 0 a9.2 9.2 0 1 0 -18.4 0zM1407.12 584.31 a9.2 9.2 0 1 0 18.4 0 a9.2 9.2 0 1 0 -18.4 0zM1646.15 722.31 a9.2 9.2 0 1 0 18.4 0 a9.2 9.2 0 1 0 -18.4 0zM1646.15 814.31 a9.2 9.2 0 1 0 18.4 0 a9.2 9.2 0 1 0 -18.4 0zM1566.48 860.31 a9.2 9.2 0 1 0 18.4 0 a9.2 9.2 0 1 0 -18.4 0zM1566.48 952.31 a9.2 9.2 0 1 0 18.4 0 a9.2 9.2 0 1 0 -18.4 0zM1486.8 998.31 a9.2 9.2 0 1 0 18.4 0 a9.2 9.2 0 1 0 -18.4 0zM1566.48 1412.31 a9.2 9.2 0 1 0 18.4 0 a9.2 9.2 0 1 0 -18.4 0zM1566.48 1504.31 a9.2 9.2 0 1 0 18.4 0 a9.2 9.2 0 1 0 -18.4 0zM1486.8 1550.31 a9.2 9.2 0 1 0 18.4 0 a9.2 9.2 0 1 0 -18.4 0zM1407.12 1504.31 a9.2 9.2 0 1 0 18.4 0 a9.2 9.2 0 1 0 -18.4 0zM1646.15 -13.69 a9.2 9.2 0 1 0 18.4 0 a9.2 9.2 0 1 0 -18.4 0zM1725.83 32.31 a9.2 9.2 0 1 0 18.4 0 a9.2 9.2 0 1 0 -18.4 0zM1725.83 124.31 a9.2 9.2 0 1 0 18.4 0 a9.2 9.2 0 1 0 -18.4 0zM1566.48 32.31 a9.2 9.2 0 1 0 18.4 0 a9.2 9.2 0 1 0 -18.4 0zM1725.83 584.31 a9.2 9.2 0 1 0 18.4 0 a9.2 9.2 0 1 0 -18.4 0zM1725.83 676.31 a9.2 9.2 0 1 0 18.4 0 a9.2 9.2 0 1 0 -18.4 0zM1725.83 1228.31 a9.2 9.2 0 1 0 18.4 0 a9.2 9.2 0 1 0 -18.4 0zM1805.51 1274.31 a9.2 9.2 0 1 0 18.4 0 a9.2 9.2 0 1 0 -18.4 0zM1805.51 1366.31 a9.2 9.2 0 1 0 18.4 0 a9.2 9.2 0 1 0 -18.4 0zM1725.83 1412.31 a9.2 9.2 0 1 0 18.4 0 a9.2 9.2 0 1 0 -18.4 0zM1646.15 1366.31 a9.2 9.2 0 1 0 18.4 0 a9.2 9.2 0 1 0 -18.4 0zM1646.15 1274.31 a9.2 9.2 0 1 0 18.4 0 a9.2 9.2 0 1 0 -18.4 0zM1805.51 262.31 a9.2 9.2 0 1 0 18.4 0 a9.2 9.2 0 1 0 -18.4 0zM1885.18 308.31 a9.2 9.2 0 1 0 18.4 0 a9.2 9.2 0 1 0 -18.4 0zM1885.18 400.31 a9.2 9.2 0 1 0 18.4 0 a9.2 9.2 0 1 0 -18.4 0zM1805.51 446.31 a9.2 9.2 0 1 0 18.4 0 a9.2 9.2 0 1 0 -18.4 0zM1725.83 400.31 a9.2 9.2 0 1 0 18.4 0 a9.2 9.2 0 1 0 -18.4 0zM1725.83 308.31 a9.2 9.2 0 1 0 18.4 0 a9.2 9.2 0 1 0 -18.4 0zM1885.18 676.31 a9.2 9.2 0 1 0 18.4 0 a9.2 9.2 0 1 0 -18.4 0zM1964.86 722.31 a9.2 9.2 0 1 0 18.4 0 a9.2 9.2 0 1 0 -18.4 0zM1964.86 814.31 a9.2 9.2 0 1 0 18.4 0 a9.2 9.2 0 1 0 -18.4 0zM1885.18 860.31 a9.2 9.2 0 1 0 18.4 0 a9.2 9.2 0 1 0 -18.4 0zM1805.51 814.31 a9.2 9.2 0 1 0 18.4 0 a9.2 9.2 0 1 0 -18.4 0zM1805.51 722.31 a9.2 9.2 0 1 0 18.4 0 a9.2 9.2 0 1 0 -18.4 0zM1964.86 -13.69 a9.2 9.2 0 1 0 18.4 0 a9.2 9.2 0 1 0 -18.4 0zM2044.53 32.31 a9.2 9.2 0 1 0 18.4 0 a9.2 9.2 0 1 0 -18.4 0zM2044.53 124.31 a9.2 9.2 0 1 0 18.4 0 a9.2 9.2 0 1 0 -18.4 0zM1964.86 170.31 a9.2 9.2 0 1 0 18.4 0 a9.2 9.2 0 1 0 -18.4 0zM1885.18 124.31 a9.2 9.2 0 1 0 18.4 0 a9.2 9.2 0 1 0 -18.4 0zM1885.18 32.31 a9.2 9.2 0 1 0 18.4 0 a9.2 9.2 0 1 0 -18.4 0zM2124.21 170.31 a9.2 9.2 0 1 0 18.4 0 a9.2 9.2 0 1 0 -18.4 0zM2124.21 262.31 a9.2 9.2 0 1 0 18.4 0 a9.2 9.2 0 1 0 -18.4 0zM2044.53 308.31 a9.2 9.2 0 1 0 18.4 0 a9.2 9.2 0 1 0 -18.4 0zM1964.86 262.31 a9.2 9.2 0 1 0 18.4 0 a9.2 9.2 0 1 0 -18.4 0zM2044.53 400.31 a9.2 9.2 0 1 0 18.4 0 a9.2 9.2 0 1 0 -18.4 0zM2124.21 446.31 a9.2 9.2 0 1 0 18.4 0 a9.2 9.2 0 1 0 -18.4 0zM2124.21 538.31 a9.2 9.2 0 1 0 18.4 0 a9.2 9.2 0 1 0 -18.4 0zM2044.53 584.31 a9.2 9.2 0 1 0 18.4 0 a9.2 9.2 0 1 0 -18.4 0zM1964.86 538.31 a9.2 9.2 0 1 0 18.4 0 a9.2 9.2 0 1 0 -18.4 0zM1964.86 446.31 a9.2 9.2 0 1 0 18.4 0 a9.2 9.2 0 1 0 -18.4 0zM2044.53 676.31 a9.2 9.2 0 1 0 18.4 0 a9.2 9.2 0 1 0 -18.4 0zM2124.21 722.31 a9.2 9.2 0 1 0 18.4 0 a9.2 9.2 0 1 0 -18.4 0zM2124.21 814.31 a9.2 9.2 0 1 0 18.4 0 a9.2 9.2 0 1 0 -18.4 0zM2044.53 860.31 a9.2 9.2 0 1 0 18.4 0 a9.2 9.2 0 1 0 -18.4 0zM1964.86 1366.31 a9.2 9.2 0 1 0 18.4 0 a9.2 9.2 0 1 0 -18.4 0zM2044.53 1412.31 a9.2 9.2 0 1 0 18.4 0 a9.2 9.2 0 1 0 -18.4 0zM2044.53 1504.31 a9.2 9.2 0 1 0 18.4 0 a9.2 9.2 0 1 0 -18.4 0zM1964.86 1550.31 a9.2 9.2 0 1 0 18.4 0 a9.2 9.2 0 1 0 -18.4 0zM1885.18 1504.31 a9.2 9.2 0 1 0 18.4 0 a9.2 9.2 0 1 0 -18.4 0zM1885.18 1412.31 a9.2 9.2 0 1 0 18.4 0 a9.2 9.2 0 1 0 -18.4 0zM2124.21 -13.69 a9.2 9.2 0 1 0 18.4 0 a9.2 9.2 0 1 0 -18.4 0zM2203.89 32.31 a9.2 9.2 0 1 0 18.4 0 a9.2 9.2 0 1 0 -18.4 0zM2203.89 124.31 a9.2 9.2 0 1 0 18.4 0 a9.2 9.2 0 1 0 -18.4 0zM2203.89 584.31 a9.2 9.2 0 1 0 18.4 0 a9.2 9.2 0 1 0 -18.4 0zM2203.89 676.31 a9.2 9.2 0 1 0 18.4 0 a9.2 9.2 0 1 0 -18.4 0zM2283.56 722.31 a9.2 9.2 0 1 0 18.4 0 a9.2 9.2 0 1 0 -18.4 0zM2283.56 814.31 a9.2 9.2 0 1 0 18.4 0 a9.2 9.2 0 1 0 -18.4 0zM2203.89 860.31 a9.2 9.2 0 1 0 18.4 0 a9.2 9.2 0 1 0 -18.4 0zM2203.89 1228.31 a9.2 9.2 0 1 0 18.4 0 a9.2 9.2 0 1 0 -18.4 0zM2283.56 1274.31 a9.2 9.2 0 1 0 18.4 0 a9.2 9.2 0 1 0 -18.4 0zM2283.56 1366.31 a9.2 9.2 0 1 0 18.4 0 a9.2 9.2 0 1 0 -18.4 0zM2203.89 1412.31 a9.2 9.2 0 1 0 18.4 0 a9.2 9.2 0 1 0 -18.4 0zM2124.21 1366.31 a9.2 9.2 0 1 0 18.4 0 a9.2 9.2 0 1 0 -18.4 0zM2124.21 1274.31 a9.2 9.2 0 1 0 18.4 0 a9.2 9.2 0 1 0 -18.4 0zM2203.89 1504.31 a9.2 9.2 0 1 0 18.4 0 a9.2 9.2 0 1 0 -18.4 0zM2124.21 1550.31 a9.2 9.2 0 1 0 18.4 0 a9.2 9.2 0 1 0 -18.4 0zM2363.24 124.31 a9.2 9.2 0 1 0 18.4 0 a9.2 9.2 0 1 0 -18.4 0zM2442.92 170.31 a9.2 9.2 0 1 0 18.4 0 a9.2 9.2 0 1 0 -18.4 0zM2442.92 262.31 a9.2 9.2 0 1 0 18.4 0 a9.2 9.2 0 1 0 -18.4 0zM2363.24 308.31 a9.2 9.2 0 1 0 18.4 0 a9.2 9.2 0 1 0 -18.4 0zM2283.56 262.31 a9.2 9.2 0 1 0 18.4 0 a9.2 9.2 0 1 0 -18.4 0zM2283.56 170.31 a9.2 9.2 0 1 0 18.4 0 a9.2 9.2 0 1 0 -18.4 0zM2363.24 400.31 a9.2 9.2 0 1 0 18.4 0 a9.2 9.2 0 1 0 -18.4 0zM2283.56 446.31 a9.2 9.2 0 1 0 18.4 0 a9.2 9.2 0 1 0 -18.4 0zM2203.89 400.31 a9.2 9.2 0 1 0 18.4 0 a9.2 9.2 0 1 0 -18.4 0zM2203.89 308.31 a9.2 9.2 0 1 0 18.4 0 a9.2 9.2 0 1 0 -18.4 0zM2442.92 446.31 a9.2 9.2 0 1 0 18.4 0 a9.2 9.2 0 1 0 -18.4 0zM2442.92 538.31 a9.2 9.2 0 1 0 18.4 0 a9.2 9.2 0 1 0 -18.4 0zM2363.24 584.31 a9.2 9.2 0 1 0 18.4 0 a9.2 9.2 0 1 0 -18.4 0zM2283.56 538.31 a9.2 9.2 0 1 0 18.4 0 a9.2 9.2 0 1 0 -18.4 0zM2363.24 676.31 a9.2 9.2 0 1 0 18.4 0 a9.2 9.2 0 1 0 -18.4 0zM2442.92 722.31 a9.2 9.2 0 1 0 18.4 0 a9.2 9.2 0 1 0 -18.4 0zM2442.92 814.31 a9.2 9.2 0 1 0 18.4 0 a9.2 9.2 0 1 0 -18.4 0zM2363.24 860.31 a9.2 9.2 0 1 0 18.4 0 a9.2 9.2 0 1 0 -18.4 0zM2363.24 952.31 a9.2 9.2 0 1 0 18.4 0 a9.2 9.2 0 1 0 -18.4 0zM2442.92 998.31 a9.2 9.2 0 1 0 18.4 0 a9.2 9.2 0 1 0 -18.4 0zM2442.92 1090.31 a9.2 9.2 0 1 0 18.4 0 a9.2 9.2 0 1 0 -18.4 0zM2363.24 1136.31 a9.2 9.2 0 1 0 18.4 0 a9.2 9.2 0 1 0 -18.4 0zM2283.56 1090.31 a9.2 9.2 0 1 0 18.4 0 a9.2 9.2 0 1 0 -18.4 0zM2283.56 998.31 a9.2 9.2 0 1 0 18.4 0 a9.2 9.2 0 1 0 -18.4 0zM2363.24 1228.31 a9.2 9.2 0 1 0 18.4 0 a9.2 9.2 0 1 0 -18.4 0zM2442.92 1274.31 a9.2 9.2 0 1 0 18.4 0 a9.2 9.2 0 1 0 -18.4 0zM2442.92 1366.31 a9.2 9.2 0 1 0 18.4 0 a9.2 9.2 0 1 0 -18.4 0zM2363.24 1412.31 a9.2 9.2 0 1 0 18.4 0 a9.2 9.2 0 1 0 -18.4 0zM2522.59 308.31 a9.2 9.2 0 1 0 18.4 0 a9.2 9.2 0 1 0 -18.4 0zM2522.59 400.31 a9.2 9.2 0 1 0 18.4 0 a9.2 9.2 0 1 0 -18.4 0zM2602.27 446.31 a9.2 9.2 0 1 0 18.4 0 a9.2 9.2 0 1 0 -18.4 0zM2602.27 538.31 a9.2 9.2 0 1 0 18.4 0 a9.2 9.2 0 1 0 -18.4 0zM2522.59 584.31 a9.2 9.2 0 1 0 18.4 0 a9.2 9.2 0 1 0 -18.4 0zM2522.59 860.31 a9.2 9.2 0 1 0 18.4 0 a9.2 9.2 0 1 0 -18.4 0zM2522.59 952.31 a9.2 9.2 0 1 0 18.4 0 a9.2 9.2 0 1 0 -18.4 0zM2602.27 262.31 a9.2 9.2 0 1 0 18.4 0 a9.2 9.2 0 1 0 -18.4 0zM2681.95 308.31 a9.2 9.2 0 1 0 18.4 0 a9.2 9.2 0 1 0 -18.4 0zM2681.95 400.31 a9.2 9.2 0 1 0 18.4 0 a9.2 9.2 0 1 0 -18.4 0zM2761.62 446.31 a9.2 9.2 0 1 0 18.4 0 a9.2 9.2 0 1 0 -18.4 0zM2761.62 538.31 a9.2 9.2 0 1 0 18.4 0 a9.2 9.2 0 1 0 -18.4 0zM2681.95 584.31 a9.2 9.2 0 1 0 18.4 0 a9.2 9.2 0 1 0 -18.4 0zM2602.27 1090.31 a9.2 9.2 0 1 0 18.4 0 a9.2 9.2 0 1 0 -18.4 0zM2681.95 1136.31 a9.2 9.2 0 1 0 18.4 0 a9.2 9.2 0 1 0 -18.4 0zM2681.95 1228.31 a9.2 9.2 0 1 0 18.4 0 a9.2 9.2 0 1 0 -18.4 0zM2602.27 1274.31 a9.2 9.2 0 1 0 18.4 0 a9.2 9.2 0 1 0 -18.4 0zM2522.59 1228.31 a9.2 9.2 0 1 0 18.4 0 a9.2 9.2 0 1 0 -18.4 0zM2522.59 1136.31 a9.2 9.2 0 1 0 18.4 0 a9.2 9.2 0 1 0 -18.4 0zM2761.62 1274.31 a9.2 9.2 0 1 0 18.4 0 a9.2 9.2 0 1 0 -18.4 0zM2761.62 1366.31 a9.2 9.2 0 1 0 18.4 0 a9.2 9.2 0 1 0 -18.4 0zM2681.95 1412.31 a9.2 9.2 0 1 0 18.4 0 a9.2 9.2 0 1 0 -18.4 0zM2602.27 1366.31 a9.2 9.2 0 1 0 18.4 0 a9.2 9.2 0 1 0 -18.4 0z" fill="#03305d"></path><path d="M31.82 -21.09L70.79 1.41L70.79 46.41L31.82 68.91L-7.15 46.41L-7.15 1.41zM70.79 181.41L109.76 203.91L109.76 248.91L70.79 271.41L31.82 248.91L31.82 203.91zM70.79 316.41L109.76 338.91L109.76 383.91L70.79 406.41L31.82 383.91L31.82 338.91zM70.79 856.41L109.76 878.91L109.76 923.91L70.79 946.41L31.82 923.91L31.82 878.91zM31.82 1058.91L70.79 1081.41L70.79 1126.41L31.82 1148.91L-7.15 1126.41L-7.15 1081.41zM70.79 1261.41L109.76 1283.91L109.76 1328.91L70.79 1351.41L31.82 1328.91L31.82 1283.91zM70.79 1396.41L109.76 1418.91L109.76 1463.91L70.79 1486.41L31.82 1463.91L31.82 1418.91zM148.74 721.41L187.71 743.91L187.71 788.91L148.74 811.41L109.76 788.91L109.76 743.91zM109.76 1193.91L148.74 1216.41L148.74 1261.41L109.76 1283.91L70.79 1261.41L70.79 1216.41zM187.71 113.91L226.68 136.41L226.68 181.41L187.71 203.91L148.74 181.41L148.74 136.41zM226.68 721.41L265.65 743.91L265.65 788.91L226.68 811.41L187.71 788.91L187.71 743.91zM187.71 1193.91L226.68 1216.41L226.68 1261.41L187.71 1283.91L148.74 1261.41L148.74 1216.41zM265.65 653.91L304.63 676.41L304.63 721.41L265.65 743.91L226.68 721.41L226.68 676.41zM265.65 1328.91L304.63 1351.41L304.63 1396.41L265.65 1418.91L226.68 1396.41L226.68 1351.41zM343.6 653.91L382.57 676.41L382.57 721.41L343.6 743.91L304.63 721.41L304.63 676.41zM382.57 856.41L421.54 878.91L421.54 923.91L382.57 946.41L343.6 923.91L343.6 878.91zM343.6 923.91L382.57 946.41L382.57 991.41L343.6 1013.91L304.63 991.41L304.63 946.41zM343.6 1058.91L382.57 1081.41L382.57 1126.41L343.6 1148.91L304.63 1126.41L304.63 1081.41zM421.54 -21.09L460.51 1.41L460.51 46.41L421.54 68.91L382.57 46.41L382.57 1.41zM460.51 46.41L499.49 68.91L499.49 113.91L460.51 136.41L421.54 113.91L421.54 68.91zM460.51 181.41L499.49 203.91L499.49 248.91L460.51 271.41L421.54 248.91L421.54 203.91zM460.51 316.41L499.49 338.91L499.49 383.91L460.51 406.41L421.54 383.91L421.54 338.91zM421.54 1328.91L460.51 1351.41L460.51 1396.41L421.54 1418.91L382.57 1396.41L382.57 1351.41zM499.49 -21.09L538.46 1.41L538.46 46.41L499.49 68.91L460.51 46.41L460.51 1.41zM499.49 113.91L538.46 136.41L538.46 181.41L499.49 203.91L460.51 181.41L460.51 136.41zM499.49 383.91L538.46 406.41L538.46 451.41L499.49 473.91L460.51 451.41L460.51 406.41zM499.49 653.91L538.46 676.41L538.46 721.41L499.49 743.91L460.51 721.41L460.51 676.41zM499.49 923.91L538.46 946.41L538.46 991.41L499.49 1013.91L460.51 991.41L460.51 946.41zM538.46 1261.41L577.43 1283.91L577.43 1328.91L538.46 1351.41L499.49 1328.91L499.49 1283.91zM577.43 -21.09L616.4 1.41L616.4 46.41L577.43 68.91L538.46 46.41L538.46 1.41zM616.4 451.41L655.38 473.91L655.38 518.91L616.4 541.41L577.43 518.91L577.43 473.91zM577.43 518.91L616.4 541.41L616.4 586.41L577.43 608.91L538.46 586.41L538.46 541.41zM577.43 788.91L616.4 811.41L616.4 856.41L577.43 878.91L538.46 856.41L538.46 811.41zM616.4 856.41L655.38 878.91L655.38 923.91L616.4 946.41L577.43 923.91L577.43 878.91zM577.43 923.91L616.4 946.41L616.4 991.41L577.43 1013.91L538.46 991.41L538.46 946.41zM577.43 1058.91L616.4 1081.41L616.4 1126.41L577.43 1148.91L538.46 1126.41L538.46 1081.41zM616.4 1126.41L655.38 1148.91L655.38 1193.91L616.4 1216.41L577.43 1193.91L577.43 1148.91zM694.35 181.41L733.32 203.91L733.32 248.91L694.35 271.41L655.38 248.91L655.38 203.91zM655.38 518.91L694.35 541.41L694.35 586.41L655.38 608.91L616.4 586.41L616.4 541.41zM694.35 856.41L733.32 878.91L733.32 923.91L694.35 946.41L655.38 923.91L655.38 878.91zM733.32 1058.91L772.29 1081.41L772.29 1126.41L733.32 1148.91L694.35 1126.41L694.35 1081.41zM772.29 1126.41L811.27 1148.91L811.27 1193.91L772.29 1216.41L733.32 1193.91L733.32 1148.91zM772.29 1396.41L811.27 1418.91L811.27 1463.91L772.29 1486.41L733.32 1463.91L733.32 1418.91zM811.27 113.91L850.24 136.41L850.24 181.41L811.27 203.91L772.29 181.41L772.29 136.41zM850.24 181.41L889.21 203.91L889.21 248.91L850.24 271.41L811.27 248.91L811.27 203.91zM811.27 383.91L850.24 406.41L850.24 451.41L811.27 473.91L772.29 451.41L772.29 406.41zM811.27 518.91L850.24 541.41L850.24 586.41L811.27 608.91L772.29 586.41L772.29 541.41zM811.27 1058.91L850.24 1081.41L850.24 1126.41L811.27 1148.91L772.29 1126.41L772.29 1081.41zM928.18 46.41L967.15 68.91L967.15 113.91L928.18 136.41L889.21 113.91L889.21 68.91zM928.18 991.41L967.15 1013.91L967.15 1058.91L928.18 1081.41L889.21 1058.91L889.21 1013.91zM928.18 1126.41L967.15 1148.91L967.15 1193.91L928.18 1216.41L889.21 1193.91L889.21 1148.91zM889.21 1193.91L928.18 1216.41L928.18 1261.41L889.21 1283.91L850.24 1261.41L850.24 1216.41zM928.18 1396.41L967.15 1418.91L967.15 1463.91L928.18 1486.41L889.21 1463.91L889.21 1418.91zM1006.13 46.41L1045.1 68.91L1045.1 113.91L1006.13 136.41L967.15 113.91L967.15 68.91zM967.15 113.91L1006.13 136.41L1006.13 181.41L967.15 203.91L928.18 181.41L928.18 136.41zM1006.13 721.41L1045.1 743.91L1045.1 788.91L1006.13 811.41L967.15 788.91L967.15 743.91zM967.15 923.91L1006.13 946.41L1006.13 991.41L967.15 1013.91L928.18 991.41L928.18 946.41zM1045.1 113.91L1084.07 136.41L1084.07 181.41L1045.1 203.91L1006.13 181.41L1006.13 136.41zM1045.1 383.91L1084.07 406.41L1084.07 451.41L1045.1 473.91L1006.13 451.41L1006.13 406.41zM1045.1 923.91L1084.07 946.41L1084.07 991.41L1045.1 1013.91L1006.13 991.41L1006.13 946.41zM1084.07 1261.41L1123.04 1283.91L1123.04 1328.91L1084.07 1351.41L1045.1 1328.91L1045.1 1283.91zM1084.07 1396.41L1123.04 1418.91L1123.04 1463.91L1084.07 1486.41L1045.1 1463.91L1045.1 1418.91zM1162.02 46.41L1200.99 68.91L1200.99 113.91L1162.02 136.41L1123.04 113.91L1123.04 68.91zM1162.02 451.41L1200.99 473.91L1200.99 518.91L1162.02 541.41L1123.04 518.91L1123.04 473.91zM1123.04 518.91L1162.02 541.41L1162.02 586.41L1123.04 608.91L1084.07 586.41L1084.07 541.41zM1200.99 113.91L1239.96 136.41L1239.96 181.41L1200.99 203.91L1162.02 181.41L1162.02 136.41zM1317.9 181.41L1356.88 203.91L1356.88 248.91L1317.9 271.41L1278.93 248.91L1278.93 203.91zM1278.93 653.91L1317.9 676.41L1317.9 721.41L1278.93 743.91L1239.96 721.41L1239.96 676.41zM1317.9 991.41L1356.88 1013.91L1356.88 1058.91L1317.9 1081.41L1278.93 1058.91L1278.93 1013.91zM1395.85 181.41L1434.82 203.91L1434.82 248.91L1395.85 271.41L1356.88 248.91L1356.88 203.91zM1356.88 248.91L1395.85 271.41L1395.85 316.41L1356.88 338.91L1317.9 316.41L1317.9 271.41zM1395.85 586.41L1434.82 608.91L1434.82 653.91L1395.85 676.41L1356.88 653.91L1356.88 608.91zM1356.88 653.91L1395.85 676.41L1395.85 721.41L1356.88 743.91L1317.9 721.41L1317.9 676.41zM1473.79 181.41L1512.77 203.91L1512.77 248.91L1473.79 271.41L1434.82 248.91L1434.82 203.91zM1434.82 653.91L1473.79 676.41L1473.79 721.41L1434.82 743.91L1395.85 721.41L1395.85 676.41zM1473.79 1126.41L1512.77 1148.91L1512.77 1193.91L1473.79 1216.41L1434.82 1193.91L1434.82 1148.91zM1473.79 1261.41L1512.77 1283.91L1512.77 1328.91L1473.79 1351.41L1434.82 1328.91L1434.82 1283.91zM1512.77 113.91L1551.74 136.41L1551.74 181.41L1512.77 203.91L1473.79 181.41L1473.79 136.41zM1512.77 248.91L1551.74 271.41L1551.74 316.41L1512.77 338.91L1473.79 316.41L1473.79 271.41zM1551.74 586.41L1590.71 608.91L1590.71 653.91L1551.74 676.41L1512.77 653.91L1512.77 608.91zM1512.77 1193.91L1551.74 1216.41L1551.74 1261.41L1512.77 1283.91L1473.79 1261.41L1473.79 1216.41zM1551.74 1261.41L1590.71 1283.91L1590.71 1328.91L1551.74 1351.41L1512.77 1328.91L1512.77 1283.91zM1629.68 856.41L1668.65 878.91L1668.65 923.91L1629.68 946.41L1590.71 923.91L1590.71 878.91zM1668.65 518.91L1707.63 541.41L1707.63 586.41L1668.65 608.91L1629.68 586.41L1629.68 541.41zM1668.65 653.91L1707.63 676.41L1707.63 721.41L1668.65 743.91L1629.68 721.41L1629.68 676.41zM1668.65 788.91L1707.63 811.41L1707.63 856.41L1668.65 878.91L1629.68 856.41L1629.68 811.41zM1668.65 923.91L1707.63 946.41L1707.63 991.41L1668.65 1013.91L1629.68 991.41L1629.68 946.41zM1707.63 991.41L1746.6 1013.91L1746.6 1058.91L1707.63 1081.41L1668.65 1058.91L1668.65 1013.91zM1668.65 1193.91L1707.63 1216.41L1707.63 1261.41L1668.65 1283.91L1629.68 1261.41L1629.68 1216.41zM1707.63 1261.41L1746.6 1283.91L1746.6 1328.91L1707.63 1351.41L1668.65 1328.91L1668.65 1283.91zM1746.6 -21.09L1785.57 1.41L1785.57 46.41L1746.6 68.91L1707.63 46.41L1707.63 1.41zM1746.6 1058.91L1785.57 1081.41L1785.57 1126.41L1746.6 1148.91L1707.63 1126.41L1707.63 1081.41zM1863.52 316.41L1902.49 338.91L1902.49 383.91L1863.52 406.41L1824.54 383.91L1824.54 338.91zM1824.54 788.91L1863.52 811.41L1863.52 856.41L1824.54 878.91L1785.57 856.41L1785.57 811.41zM1863.52 991.41L1902.49 1013.91L1902.49 1058.91L1863.52 1081.41L1824.54 1058.91L1824.54 1013.91zM1824.54 1058.91L1863.52 1081.41L1863.52 1126.41L1824.54 1148.91L1785.57 1126.41L1785.57 1081.41zM1863.52 1261.41L1902.49 1283.91L1902.49 1328.91L1863.52 1351.41L1824.54 1328.91L1824.54 1283.91zM1902.49 1328.91L1941.46 1351.41L1941.46 1396.41L1902.49 1418.91L1863.52 1396.41L1863.52 1351.41zM2019.4 46.41L2058.38 68.91L2058.38 113.91L2019.4 136.41L1980.43 113.91L1980.43 68.91zM1980.43 248.91L2019.4 271.41L2019.4 316.41L1980.43 338.91L1941.46 316.41L1941.46 271.41zM2019.4 586.41L2058.38 608.91L2058.38 653.91L2019.4 676.41L1980.43 653.91L1980.43 608.91zM1980.43 923.91L2019.4 946.41L2019.4 991.41L1980.43 1013.91L1941.46 991.41L1941.46 946.41zM2019.4 991.41L2058.38 1013.91L2058.38 1058.91L2019.4 1081.41L1980.43 1058.91L1980.43 1013.91zM2058.38 248.91L2097.35 271.41L2097.35 316.41L2058.38 338.91L2019.4 316.41L2019.4 271.41zM2097.35 316.41L2136.32 338.91L2136.32 383.91L2097.35 406.41L2058.38 383.91L2058.38 338.91zM2097.35 451.41L2136.32 473.91L2136.32 518.91L2097.35 541.41L2058.38 518.91L2058.38 473.91zM2058.38 923.91L2097.35 946.41L2097.35 991.41L2058.38 1013.91L2019.4 991.41L2019.4 946.41zM2058.38 1058.91L2097.35 1081.41L2097.35 1126.41L2058.38 1148.91L2019.4 1126.41L2019.4 1081.41zM2097.35 1396.41L2136.32 1418.91L2136.32 1463.91L2097.35 1486.41L2058.38 1463.91L2058.38 1418.91zM2136.32 -21.09L2175.29 1.41L2175.29 46.41L2136.32 68.91L2097.35 46.41L2097.35 1.41zM2136.32 383.91L2175.29 406.41L2175.29 451.41L2136.32 473.91L2097.35 451.41L2097.35 406.41zM2175.29 1261.41L2214.27 1283.91L2214.27 1328.91L2175.29 1351.41L2136.32 1328.91L2136.32 1283.91zM2136.32 1328.91L2175.29 1351.41L2175.29 1396.41L2136.32 1418.91L2097.35 1396.41L2097.35 1351.41zM2175.29 1396.41L2214.27 1418.91L2214.27 1463.91L2175.29 1486.41L2136.32 1463.91L2136.32 1418.91zM2214.27 -21.09L2253.24 1.41L2253.24 46.41L2214.27 68.91L2175.29 46.41L2175.29 1.41zM2214.27 248.91L2253.24 271.41L2253.24 316.41L2214.27 338.91L2175.29 316.41L2175.29 271.41zM2214.27 518.91L2253.24 541.41L2253.24 586.41L2214.27 608.91L2175.29 586.41L2175.29 541.41zM2214.27 1328.91L2253.24 1351.41L2253.24 1396.41L2214.27 1418.91L2175.29 1396.41L2175.29 1351.41zM2253.24 1396.41L2292.21 1418.91L2292.21 1463.91L2253.24 1486.41L2214.27 1463.91L2214.27 1418.91zM2292.21 113.91L2331.18 136.41L2331.18 181.41L2292.21 203.91L2253.24 181.41L2253.24 136.41zM2331.18 586.41L2370.15 608.91L2370.15 653.91L2331.18 676.41L2292.21 653.91L2292.21 608.91zM2292.21 1328.91L2331.18 1351.41L2331.18 1396.41L2292.21 1418.91L2253.24 1396.41L2253.24 1351.41zM2409.13 46.41L2448.1 68.91L2448.1 113.91L2409.13 136.41L2370.16 113.91L2370.16 68.91zM2409.13 181.41L2448.1 203.91L2448.1 248.91L2409.13 271.41L2370.16 248.91L2370.16 203.91zM2370.16 248.91L2409.13 271.41L2409.13 316.41L2370.16 338.91L2331.18 316.41L2331.18 271.41zM2409.13 316.41L2448.1 338.91L2448.1 383.91L2409.13 406.41L2370.16 383.91L2370.16 338.91zM2370.16 1328.91L2409.13 1351.41L2409.13 1396.41L2370.16 1418.91L2331.18 1396.41L2331.18 1351.41zM2448.1 248.91L2487.07 271.41L2487.07 316.41L2448.1 338.91L2409.13 316.41L2409.13 271.41zM2448.1 518.91L2487.07 541.41L2487.07 586.41L2448.1 608.91L2409.13 586.41L2409.13 541.41zM2487.07 586.41L2526.04 608.91L2526.04 653.91L2487.07 676.41L2448.1 653.91L2448.1 608.91zM2487.07 991.41L2526.04 1013.91L2526.04 1058.91L2487.07 1081.41L2448.1 1058.91L2448.1 1013.91zM2526.04 788.91L2565.02 811.41L2565.02 856.41L2526.04 878.91L2487.07 856.41L2487.07 811.41zM2565.02 856.41L2603.99 878.91L2603.99 923.91L2565.02 946.41L2526.04 923.91L2526.04 878.91zM2565.02 1261.41L2603.99 1283.91L2603.99 1328.91L2565.02 1351.41L2526.04 1328.91L2526.04 1283.91z" stroke="rgba(6, 80, 156, 0.93)" stroke-width="2"></path></g><defs><mask id="SvgjsMask1167"><rect width="2560" height="1440" fill="#ffffff"></rect></mask></defs></svg>